<?xml version="1.0" encoding="UTF-8"?>
<svg width="13px" height="13px" viewBox="0 0 13 13" version="1.1" xmlns="http://www.w3.org/2000/svg" xmlns:xlink="http://www.w3.org/1999/xlink">
    <title>icon - rep</title>
    <g id="Symbols" stroke="none" stroke-width="1" fill="none" fill-rule="evenodd">
        <g id="Button---Find-my-Rep" transform="translate(-32, -12)" fill="#FFFFFF" fill-rule="nonzero">
            <path d="M37.0731707,17.0731707 C36.3756098,17.0731707 35.7784553,16.8247967 35.2817073,16.3280488 C34.7849593,15.8313008 34.5365854,15.2341463 34.5365854,14.5365854 C34.5365854,13.8390244 34.7849593,13.2418699 35.2817073,12.745122 C35.7784553,12.248374 36.3756098,12 37.0731707,12 C37.7707317,12 38.3678862,12.248374 38.8646341,12.745122 C39.3613821,13.2418699 39.6097561,13.8390244 39.6097561,14.5365854 C39.6097561,15.2341463 39.3613821,15.8313008 38.8646341,16.3280488 C38.3678862,16.8247967 37.7707317,17.0731707 37.0731707,17.0731707 Z M37.0731707,15.804878 C37.4219512,15.804878 37.7205285,15.6806911 37.9689024,15.4323171 C38.2172764,15.1839431 38.3414634,14.8853659 38.3414634,14.5365854 C38.3414634,14.1878049 38.2172764,13.8892276 37.9689024,13.6408537 C37.7205285,13.3924797 37.4219512,13.2682927 37.0731707,13.2682927 C36.7243902,13.2682927 36.425813,13.3924797 36.177439,13.6408537 C35.929065,13.8892276 35.804878,14.1878049 35.804878,14.5365854 C35.804878,14.8853659 35.929065,15.1839431 36.177439,15.4323171 C36.425813,15.6806911 36.7243902,15.804878 37.0731707,15.804878 Z M44.1121951,24.3658537 L42.0829268,22.3365854 C41.8609756,22.4634146 41.6231707,22.5691057 41.3695122,22.6536585 C41.1158537,22.7382114 40.8463415,22.7804878 40.5609756,22.7804878 C39.7682927,22.7804878 39.0945122,22.5030488 38.5396341,21.9481707 C37.9847561,21.3932927 37.7073171,20.7195122 37.7073171,19.9268293 C37.7073171,19.1341463 37.9847561,18.4603659 38.5396341,17.9054878 C39.0945122,17.3506098 39.7682927,17.0731707 40.5609756,17.0731707 C41.3536585,17.0731707 42.027439,17.3506098 42.5823171,17.9054878 C43.1371951,18.4603659 43.4146341,19.1341463 43.4146341,19.9268293 C43.4146341,20.2121951 43.3723577,20.4817073 43.2878049,20.7353659 C43.203252,20.9890244 43.097561,21.2268293 42.9707317,21.4487805 L45,23.4780488 L44.1121951,24.3658537 Z M40.5609756,21.5121951 C41.004878,21.5121951 41.3800813,21.3589431 41.6865854,21.052439 C41.9930894,20.745935 42.1463415,20.3707317 42.1463415,19.9268293 C42.1463415,19.4829268 41.9930894,19.1077236 41.6865854,18.8012195 C41.3800813,18.4947154 41.004878,18.3414634 40.5609756,18.3414634 C40.1170732,18.3414634 39.7418699,18.4947154 39.4353659,18.8012195 C39.1288618,19.1077236 38.9756098,19.4829268 38.9756098,19.9268293 C38.9756098,20.3707317 39.1288618,20.745935 39.4353659,21.052439 C39.7418699,21.3589431 40.1170732,21.5121951 40.5609756,21.5121951 Z M32,22.1463415 L32,20.3865854 C32,20.0272358 32.0898374,19.6943089 32.2695122,19.3878049 C32.449187,19.0813008 32.697561,18.8487805 33.0146341,18.6902439 C33.5536585,18.4154472 34.1613821,18.1829268 34.8378049,17.9926829 C35.5142276,17.802439 36.2646341,17.7073171 37.0890244,17.7073171 C36.9621951,17.897561 36.8538618,18.1010163 36.7640244,18.3176829 C36.674187,18.5343496 36.6028455,18.7589431 36.55,18.9914634 C35.9158537,19.0443089 35.3504065,19.1526423 34.8536585,19.3164634 C34.3569106,19.4802846 33.9394309,19.6520325 33.6012195,19.8317073 C33.4955285,19.8845528 33.4136179,19.9611789 33.3554878,20.0615854 C33.2973577,20.1619919 33.2682927,20.2703252 33.2682927,20.3865854 L33.2682927,20.8780488 L36.55,20.8780488 C36.6028455,21.1105691 36.674187,21.3325203 36.7640244,21.5439024 C36.8538618,21.7552846 36.9621951,21.9560976 37.0890244,22.1463415 L32,22.1463415 Z" id="icon---rep"></path>
        </g>
    </g>
</svg>